HIERARCHY
ROOT joint_Root
{
  OFFSET 0 0 0
  CHANNELS 6 Xposition Yposition Zposition Zrotation Xrotation Yrotation
  JOINT Hips
  {
    OFFSET 0 93.9241 -3
    CHANNELS 6 Xposition Yposition Zposition Zrotation Xrotation Yrotation
    JOINT Spine
    {
      OFFSET 15.7357 0 0
      CHANNELS 6 Xposition Yposition Zposition Zrotation Xrotation Yrotation
      JOINT Chest
      {
        OFFSET 8.98455 -0.406207 0
        CHANNELS 6 Xposition Yposition Zposition Zrotation Xrotation Yrotation
        JOINT Neck
        {
          OFFSET 16.3773 0 0
          CHANNELS 6 Xposition Yposition Zposition Zrotation Xrotation Yrotation
          JOINT Head
          {
            OFFSET 6.45672 0 0
            CHANNELS 6 Xposition Yposition Zposition Zrotation Xrotation Yrotation
            End Site
            {
              OFFSET 0 0 0
            }
          }
        }
        JOINT Shoulder_L
        {
          OFFSET 12.9942 -0.242716 4.98039
          CHANNELS 6 Xposition Yposition Zposition Zrotation Xrotation Yrotation
          JOINT UpperArm_L
          {
            OFFSET 5.34809 0 0
            CHANNELS 6 Xposition Yposition Zposition Zrotation Xrotation Yrotation
            JOINT LowerArm_L
            {
              OFFSET 24.3286 1.87007e-05 0
              CHANNELS 6 Xposition Yposition Zposition Zrotation Xrotation Yrotation
              JOINT Hand_L
              {
                OFFSET 22.2916 0 0
                CHANNELS 6 Xposition Yposition Zposition Zrotation Xrotation Yrotation
                End Site
                {
                  OFFSET 0 0 0
                }
              }
            }
          }
        }
        JOINT Shoulder_R
        {
          OFFSET 12.9945 -0.242716 -4.98039
          CHANNELS 6 Xposition Yposition Zposition Zrotation Xrotation Yrotation
          JOINT UpperArm_R
          {
            OFFSET -5.34813 0 0
            CHANNELS 6 Xposition Yposition Zposition Zrotation Xrotation Yrotation
            JOINT LowerArm_R
            {
              OFFSET -24.3289 0.000322201 0
              CHANNELS 6 Xposition Yposition Zposition Zrotation Xrotation Yrotation
              JOINT Hand_R
              {
                OFFSET -22.2915 -0.000108084 0
                CHANNELS 6 Xposition Yposition Zposition Zrotation Xrotation Yrotation
                End Site
                {
                  OFFSET 0 0 0
                }
              }
            }
          }
        }
      }
    }
    JOINT UpperLeg_L
    {
      OFFSET -2.19248 -6.46944 0
      CHANNELS 6 Xposition Yposition Zposition Zrotation Xrotation Yrotation
      JOINT LowerLeg_L
      {
        OFFSET 39.0811 0 -1.23785e-05
        CHANNELS 6 Xposition Yposition Zposition Zrotation Xrotation Yrotation
        JOINT Foot_L
        {
          OFFSET 40.9854 0 -1.26872e-05
          CHANNELS 6 Xposition Yposition Zposition Zrotation Xrotation Yrotation
          JOINT Toes_L
          {
            OFFSET 11.7543 0 0
            CHANNELS 6 Xposition Yposition Zposition Zrotation Xrotation Yrotation
            End Site
            {
              OFFSET 0 0 0
            }
          }
        }
      }
    }
    JOINT UpperLeg_R
    {
      OFFSET -2.19251 6.46944 0
      CHANNELS 6 Xposition Yposition Zposition Zrotation Xrotation Yrotation
      JOINT LowerLeg_R
      {
        OFFSET -39.0811 -0.00228153 -0.0401928
        CHANNELS 6 Xposition Yposition Zposition Zrotation Xrotation Yrotation
        JOINT Foot_R
        {
          OFFSET -40.9854 0 0
          CHANNELS 6 Xposition Yposition Zposition Zrotation Xrotation Yrotation
          JOINT Toes_R
          {
            OFFSET -11.7543 0 0
            CHANNELS 6 Xposition Yposition Zposition Zrotation Xrotation Yrotation
            End Site
            {
              OFFSET 0 0 0
            }
          }
        }
      }
    }
  }
}
MOTION
Frames:	4
Frame Time:	0.0333333
0 0 0 0 0 -0 -0.951078 90.8695 -428.6 86.4038 3.13945 2.05282 15.7357 5.1072e-06 -5.51765e-07 112.067 86.483 -112.009 8.98455 -0.406207 -4.3199e-07 -1.24886 2.6375 0.14486 16.3773 -1.3905e-06 -6.99897e-07 -1.46716 -4.97987 5.29726 6.45672 -1.25837e-06 -1.02172e-07 15.2058 -7.02968 8.1661 12.9942 -0.242716 4.98039 -90.4917 2.62447 -94.3848 5.34809 -7.22636e-06 -6.2814e-07 -75.1775 4.08675 5.30877 24.3286 1.87007e-05 4.90208e-06 2.62328 9.31404 -15.8054 22.2916 -9.88446e-07 4.63217e-06 4.61521 5.10181 5.07182 12.9945 -0.242716 -4.98039 89.5624 4.01381 -98.7721 -5.34813 -1.25947e-06 -3.79883e-06 -71.0947 5.24423 0.36988 -24.3289 0.000322201 -8.65921e-06 6.51276 16.3121 -22.1228 -22.2915 -0.000108084 -4.47941e-06 13.1561 5.36115 -1.71483 -2.19248 -6.46944 -1.22533e-07 -176.108 2.28199 -22.5561 39.0811 -6.73843e-06 -1.23785e-05 -0.248464 0.116064 64.2568 40.9854 -6.48686e-06 -1.26872e-05 1.73234 -11.6639 -51.4255 11.7543 -2.30145e-07 3.05095e-06 0.304302 -0.358381 -20.0036 -2.19251 6.46944 -1.45247e-06 -169.328 2.35096 173.004 -39.0811 -0.00228153 -0.0401928 0.0349983 -0.016887 24.9957 -40.9854 7.72618e-06 5.99936e-06 5.01265 -11.0981 -66.8554 -11.7543 -5.6619e-06 -5.58687e-06 -0.0933652 0.0695982 -16.5724 
0 0 0 0 0 -0 -0.790021 91.0332 -427.347 87.2144 2.60666 2.23827 15.7357 5.1072e-06 -5.51765e-07 112.993 86.2423 -113.217 8.98455 -0.406207 -4.3199e-07 -0.841769 2.9519 -0.426976 16.3773 -1.3905e-06 -6.99897e-07 -1.22471 -4.80354 5.20594 6.45672 -1.25837e-06 -1.02172e-07 15.4242 -6.94789 8.09685 12.9942 -0.242716 4.98039 -90.4486 2.41434 -94.4698 5.34809 -7.22636e-06 -6.2814e-07 -75.1818 5.37124 3.22198 24.3286 1.87007e-05 4.90208e-06 3.26498 9.62499 -18.837 22.2916 -9.88446e-07 4.63217e-06 5.43744 5.11386 4.79414 12.9945 -0.242716 -4.98039 89.6113 3.76848 -99.1065 -5.34813 -1.25947e-06 -3.79883e-06 -71.3077 5.79429 -1.35158 -24.3289 0.000322201 -8.65921e-06 6.84153 16.3721 -23.0598 -22.2915 -0.000108084 -4.47941e-06 13.3534 5.35927 -1.65777 -2.19248 -6.46944 -1.22534e-07 -177.186 2.7213 -24.4847 39.0811 -6.73843e-06 -1.23785e-05 -0.241773 0.139686 59.2437 40.9854 -6.48686e-06 -1.26872e-05 3.31398 -13.3472 -52.7315 11.7543 -2.30145e-07 3.05095e-06 0.363154 -0.432955 -20.6956 -2.19251 6.46944 -1.45247e-06 -170.333 2.9374 174.727 -39.0811 -0.00228153 -0.0401928 0.0142157 0.0228764 23.95 -40.9854 7.72618e-06 5.99936e-06 5.07038 -10.1273 -67.3036 -11.7543 -5.6619e-06 -5.58687e-06 -0.128213 0.096179 -16.5716 
0 0 0 0 0 -0 -0.644754 91.1929 -426.226 87.8418 1.8633 2.1831 15.7357 5.1072e-06 -5.51765e-07 114.487 86.0235 -114.931 8.98455 -0.406207 -4.3199e-07 -0.514817 3.32778 -0.872793 16.3773 -1.3905e-06 -6.99897e-07 -1.1125 -4.5442 5.07899 6.45672 -1.25837e-06 -1.02172e-07 15.4067 -6.8762 7.90763 12.9942 -0.242716 4.98039 -90.4307 2.32789 -94.5167 5.34809 -7.22636e-06 -6.2814e-07 -74.8798 6.30973 1.15934 24.3286 1.87007e-05 4.90208e-06 3.93378 9.84075 -21.9152 22.2916 -9.88446e-07 4.63217e-06 6.03575 5.13014 4.41438 12.9945 -0.242716 -4.98039 89.6581 3.52932 -99.4642 -5.34813 -1.25947e-06 -3.79883e-06 -71.6832 6.22778 -2.83373 -24.3289 0.000322201 -8.65921e-06 7.09661 16.0392 -24.2595 -22.2915 -0.000108084 -4.47941e-06 13.4492 5.36405 -1.80382 -2.19248 -6.46944 -1.22533e-07 -177.72 2.78767 -25.7297 39.0811 -6.73843e-06 -1.23785e-05 -0.175082 0.132615 52.0076 40.9854 -6.48686e-06 -1.26872e-05 2.56811 -13.3662 -53.9535 11.7543 -2.30145e-07 3.05095e-06 0.368023 -0.439213 -20.7533 -2.19251 6.46944 -1.45247e-06 -171.057 2.30708 176.182 -39.0811 -0.00228153 -0.0401928 -0.0126648 0.0813471 22.7453 -40.9854 7.72618e-06 5.99936e-06 4.92515 -10.1936 -67.4709 -11.7543 -5.6619e-06 -5.58687e-06 -0.115834 0.0873667 -16.5718 
0 0 0 0 0 -0 -0.511957 91.3288 -425.086 88.2221 1.27505 1.91977 15.7357 5.1072e-06 -5.51765e-07 115.528 85.9419 -116.104 8.98455 -0.406207 -4.3199e-07 -0.423477 3.53803 -1.13801 16.3773 -1.3905e-06 -6.99897e-07 -0.975147 -4.29207 4.90429 6.45672 -1.25837e-06 -1.02172e-07 15.4216 -6.71339 7.66252 12.9942 -0.242716 4.98039 -90.4229 2.28752 -94.5225 5.34809 -7.22636e-06 -6.2814e-07 -74.5176 7.1158 -0.64704 24.3286 1.87007e-05 4.90208e-06 4.61713 10.1003 -24.7259 22.2916 -9.88446e-07 4.63217e-06 6.74366 5.13156 4.38146 12.9945 -0.242716 -4.98039 89.6781 3.447 -99.661 -5.34813 -1.25947e-06 -3.79883e-06 -72.0392 7.05402 -3.8988 -24.3289 0.000322201 -8.65921e-06 7.383 15.6992 -25.5917 -22.2915 -0.000108084 -4.47941e-06 13.5127 5.36877 -1.94875 -2.19248 -6.46944 -1.22533e-07 -178.037 2.38133 -25.912 39.0811 -6.73843e-06 -1.23785e-05 -0.113721 0.120677 42.3514 40.9854 -6.48686e-06 -1.26872e-05 2.65355 -12.3199 -53.7201 11.7543 -2.30145e-07 3.05095e-06 0.377345 -0.451225 -20.8641 -2.19251 6.46944 -1.45247e-06 -171.573 2.18931 177.541 -39.0811 -0.00228153 -0.0401928 -0.0319705 0.129305 21.2814 -40.9854 7.72618e-06 5.99936e-06 4.88003 -9.8539 -67.5676 -11.7543 -5.6619e-06 -5.58687e-06 -0.120148 0.0910896 -16.5716 
